<svg version="1.1" id="Layer_1" xmlns="http://www.w3.org/2000/svg" xmlns:xlink="http://www.w3.org/1999/xlink" x="0px" y="0px"
	 width="100%" viewBox="0 0 1080 1080" enable-background="new 0 0 1080 1080" xml:space="preserve">
<path fill="#FFFFFF" opacity="1.000000" stroke="none" 
	d="
M522.000000,1081.000000 
	C348.020020,1081.000000 174.540039,1081.000000 1.030031,1081.000000 
	C1.030031,721.061584 1.030031,361.123138 1.030031,1.092345 
	C360.896881,1.092345 720.793762,1.092345 1080.845337,1.092345 
	C1080.845337,360.999939 1080.845337,720.999939 1080.845337,1081.000000 
	C894.789307,1081.000000 708.644653,1081.000000 522.000000,1081.000000 
M534.546997,384.032654 
	C524.344849,381.650360 514.100586,379.429138 503.967834,376.781219 
	C501.165375,376.048920 499.806366,376.855469 498.112091,378.794586 
	C477.283630,402.632843 456.374420,426.400543 435.496613,450.195770 
	C427.388306,459.437103 419.306458,468.701599 410.927795,478.281097 
	C414.689270,480.583496 418.008087,482.614960 421.476990,484.738251 
	C450.611633,451.316345 479.384369,418.309570 508.262970,385.181366 
	C509.229156,386.035034 510.001282,386.632996 510.676178,387.325653 
	C549.399719,427.068298 588.131897,466.802490 626.759155,506.638550 
	C628.063965,507.984192 628.797363,510.327881 628.937805,512.268555 
	C629.256287,516.668579 629.038086,521.107544 629.038086,525.759583 
	C675.278015,526.436035 721.024109,527.105225 767.213257,527.780884 
	C767.558167,522.730408 768.156799,518.092163 768.069031,513.466980 
	C768.026733,511.238586 767.291931,508.489716 765.851318,506.900757 
	C740.446838,478.881470 714.906372,450.985168 689.296875,423.152863 
	C687.946594,421.685394 685.839172,420.583069 683.883972,420.062347 
	C676.367920,418.060547 668.770142,416.365051 660.821411,414.464081 
	C660.821411,409.267242 660.821350,404.299652 660.821350,399.332092 
	C660.821350,389.262024 660.827576,389.246338 651.277344,385.491486 
	C645.350220,383.161133 639.401062,380.886871 632.762451,378.316681 
	C632.762451,402.357635 632.762451,425.401215 632.762451,449.072083 
	C629.080933,446.787537 626.094360,444.696869 622.892517,443.016296 
	C619.886841,441.438690 618.886047,439.382538 618.977661,435.923492 
	C619.254944,425.458069 619.077881,414.980591 619.077881,404.058105 
	C591.609009,397.534271 563.486938,390.855316 534.546997,384.032654 
M353.335327,362.761505 
	C373.704590,354.244537 394.073853,345.727570 414.621460,337.136047 
	C417.581696,344.053528 422.849792,346.755096 430.045349,346.154297 
	C432.313873,367.612000 437.687164,387.837738 446.159882,407.190277 
	C445.109192,392.788391 444.270660,378.518280 442.929504,364.295593 
	C442.403198,358.714478 444.059296,355.488251 449.598114,354.257263 
	C451.973419,353.729401 454.394348,351.879395 456.545685,352.216766 
	C460.078369,352.770813 463.077667,359.340698 462.831329,363.414551 
	C462.470123,369.388092 462.103149,375.394928 462.351135,381.362091 
	C462.592529,387.169647 463.604980,392.945190 464.278870,398.734772 
	C469.443665,369.814819 480.778168,343.125824 492.153046,315.409943 
	C475.904266,322.102081 460.687988,328.368958 444.538544,335.020172 
	C445.794220,324.528229 446.893921,315.339508 448.103546,305.232300 
	C400.912018,324.995544 354.501892,344.431519 308.159729,363.839081 
	C334.769196,463.670013 399.065063,517.301880 498.492249,519.444275 
	C420.220367,504.770081 361.047211,466.298431 333.763062,387.947357 
	C343.515656,381.823578 344.358887,379.753357 342.142059,367.475555 
	C345.602386,366.008209 349.111603,364.520142 353.335327,362.761505 
M601.813232,651.355164 
	C602.119202,638.230347 601.990784,625.075195 602.907043,611.993103 
	C603.395142,605.024536 605.890137,603.412048 612.890991,602.433289 
	C615.515442,602.066406 618.212280,601.913757 620.856140,602.050232 
	C626.760681,602.354858 632.652710,602.902771 638.937256,603.381104 
	C638.937256,598.727661 639.170959,594.403320 638.783813,590.135193 
	C638.678345,588.971619 636.777893,587.142883 635.576904,587.037659 
	C625.993591,586.197937 616.348694,584.907288 606.783997,585.289551 
	C593.734131,585.811157 586.487915,592.155334 584.250000,604.587402 
	C580.564148,625.063171 580.727112,645.692688 584.267761,666.186340 
	C585.559265,673.661865 589.150757,680.274536 597.033508,682.748230 
	C610.994019,687.129456 624.918457,684.971313 638.772217,682.233704 
	C638.772217,663.606201 638.772217,645.513062 638.772217,627.246094 
	C629.819946,627.246094 621.103882,627.246094 612.403442,627.246094 
	C612.403442,632.912537 612.403442,638.289001 612.403442,643.704895 
	C615.384216,643.850220 617.978333,643.976685 620.641602,644.106567 
	C620.641602,652.217651 620.641602,659.950928 620.641602,667.632568 
	C606.190918,669.936096 602.596741,667.040710 601.885925,652.806335 
	C601.877563,652.640015 601.870056,652.473633 601.813232,651.355164 
M646.525146,657.499878 
	C646.525146,666.255554 646.525146,675.011169 646.525146,683.766357 
	C653.012573,683.766357 658.782837,683.766357 664.997803,683.766357 
	C664.997803,674.753784 664.949341,665.969910 665.012146,657.186890 
	C665.068054,649.363647 664.928101,641.518738 665.477173,633.725891 
	C665.884888,627.939209 668.000977,626.748596 673.679077,626.872253 
	C678.764343,626.983032 679.102417,630.415222 679.138245,634.069885 
	C679.283264,648.891602 679.353394,663.714050 679.447815,678.536255 
	C679.458923,680.280945 679.449280,682.025757 679.449280,683.741943 
	C685.999695,683.741943 691.766174,683.741943 697.955078,683.741943 
	C697.955078,668.369812 698.039734,653.253235 697.909363,638.138428 
	C697.863586,632.825806 697.624146,627.470398 696.879822,622.218628 
	C695.768250,614.375366 691.308594,610.569275 683.385132,610.136841 
	C675.786499,609.722168 669.284851,611.678711 665.006531,619.016541 
	C665.006531,605.492981 665.006531,591.969482 665.006531,578.310425 
	C658.649475,578.310425 652.775696,578.310425 646.525574,578.310425 
	C646.525574,604.580017 646.525574,630.539978 646.525146,657.499878 
M461.997681,587.537292 
	C461.997681,584.437439 461.997681,581.337646 461.997681,578.208069 
	C455.565765,578.208069 449.792633,578.208069 443.787628,578.208069 
	C443.787628,613.490662 443.787628,648.564209 443.787628,683.671814 
	C449.952698,683.671814 455.849426,683.671814 462.002197,683.671814 
	C462.002197,669.704529 461.961639,656.065857 462.031342,642.427734 
	C462.048309,639.110840 462.354614,635.789001 462.657715,632.481323 
	C463.133545,627.288879 466.726044,626.758728 470.947815,626.892517 
	C475.360992,627.032410 476.060699,629.937683 476.096039,633.340881 
	C476.248413,647.996033 476.339203,662.651855 476.447052,677.307434 
	C476.462677,679.429382 476.449219,681.551575 476.449219,683.644836 
	C482.934814,683.644836 488.831665,683.644836 494.955780,683.644836 
	C494.955780,669.813538 495.059723,656.337097 494.912262,642.863403 
	C494.837708,636.050720 494.691956,629.197266 493.886261,622.444824 
	C492.918518,614.334229 488.285767,610.528564 480.113068,610.110657 
	C472.511322,609.721924 466.210266,611.996094 461.997681,620.710327 
	C461.997681,608.803284 461.997681,598.664429 461.997681,587.537292 
M730.288391,610.102417 
	C722.195496,610.577698 714.102600,611.053040 705.962402,611.531128 
	C705.962402,617.009949 705.962402,621.557556 705.962402,625.893677 
	C713.443298,625.893677 720.598572,625.578613 727.695007,626.085815 
	C729.820618,626.237732 732.886353,628.283386 733.572632,630.170227 
	C734.741333,633.383545 734.367126,637.158142 734.663818,640.989380 
	C727.829895,640.989380 721.844604,640.684814 715.903870,641.069031 
	C709.009521,641.514954 704.090942,645.280273 703.334167,651.813477 
	C702.503967,658.981140 702.403503,666.417419 703.347961,673.556335 
	C704.357300,681.186096 709.709961,684.756958 717.405518,685.080750 
	C724.787598,685.391296 730.581299,682.830750 734.654236,674.774414 
	C735.006409,678.757935 735.228394,681.269348 735.442749,683.694275 
	C741.567688,683.694275 747.140015,683.694275 752.783997,683.694275 
	C752.783997,666.102295 753.324463,648.798523 752.621399,631.545532 
	C752.004700,616.411133 746.681458,611.765503 730.288391,610.102417 
M389.156097,661.500000 
	C388.783997,649.367004 388.918976,637.189697 387.862000,625.116638 
	C387.153961,617.028931 381.850586,612.526306 373.825409,611.026306 
	C363.197662,609.039978 352.709656,610.253357 342.303772,612.247253 
	C342.303772,617.168518 342.303772,621.723572 342.303772,625.629150 
	C348.008148,625.629150 353.331268,625.597717 358.653900,625.635864 
	C369.364990,625.712585 371.023743,627.428345 370.890442,638.195557 
	C370.880554,638.990173 370.792664,639.783875 370.726746,640.797485 
	C367.508453,640.797485 364.555084,640.776611 361.602142,640.803284 
	C358.607635,640.830383 355.598389,640.730896 352.622314,640.991821 
	C345.050110,641.655518 340.143524,645.513367 339.303802,652.827881 
	C338.553345,659.365051 338.478577,666.146790 339.333771,672.659363 
	C340.432129,681.023682 345.830688,684.822510 354.249420,685.101013 
	C361.494904,685.340698 366.878326,682.373169 370.784546,675.269348 
	C371.215118,678.814087 371.509521,681.237793 371.809174,683.704712 
	C377.687988,683.704712 383.258240,683.704712 389.156189,683.704712 
	C389.156189,676.438293 389.156189,669.469116 389.156097,661.500000 
M528.627319,622.307739 
	C524.778259,638.608887 525.169128,654.993164 528.040527,671.344849 
	C529.025757,676.955017 532.703857,681.073242 538.103821,682.851257 
	C550.330505,686.877014 562.615723,685.076477 574.770264,683.064026 
	C574.770264,678.054321 574.770264,673.651306 574.770264,669.184875 
	C572.622314,669.184875 570.813477,669.181458 569.004639,669.185547 
	C563.025635,669.198914 557.008057,669.604675 551.088440,669.019226 
	C549.009644,668.813599 546.101807,666.527954 545.462219,664.573547 
	C544.380432,661.268433 544.802551,657.471069 544.562134,653.365967 
	C555.665955,653.365967 566.089355,653.365967 577.449219,653.365967 
	C576.793823,643.250977 576.601013,633.622375 575.417542,624.117126 
	C574.472412,616.526794 569.395874,611.814148 561.758362,611.048035 
	C555.698059,610.440186 549.501892,610.504150 543.420227,610.972534 
	C536.629089,611.495544 531.626953,615.151550 528.627319,622.307739 
M290.337646,612.880798 
	C290.566498,629.491394 290.338593,646.125854 291.202637,662.703369 
	C291.688477,672.025024 295.377899,680.328247 305.608185,683.334290 
	C314.940674,686.076355 324.361908,685.557739 333.711334,683.390930 
	C334.802155,683.138123 336.348175,681.687988 336.412445,680.709412 
	C336.704071,676.268860 336.540100,671.798462 336.540100,666.935791 
	C333.544006,667.244202 331.093536,667.592407 328.631531,667.723816 
	C325.977020,667.865417 323.296143,668.001648 320.654022,667.793823 
	C313.139832,667.202576 310.260162,664.749512 310.098083,657.294556 
	C309.773010,642.340271 309.766327,627.367981 310.117310,612.414612 
	C310.290771,605.025452 313.392456,602.412781 320.818848,602.088501 
	C325.740234,601.873657 330.678619,602.047791 336.128876,602.047791 
	C336.128876,598.405701 335.970795,594.279480 336.183868,590.172485 
	C336.328644,587.382324 335.166229,586.108521 332.564056,585.999451 
	C325.443634,585.700989 318.247925,584.708740 311.215057,585.381714 
	C299.990845,586.455688 294.403076,592.121582 291.941010,603.132141 
	C291.289734,606.044739 290.952240,609.027588 290.337646,612.880798 
M423.992004,410.327637 
	C428.036774,395.892456 423.311737,382.273987 411.344208,373.874207 
	C400.386536,366.183258 385.368347,366.326599 374.391479,374.226959 
	C363.411896,382.129272 358.351624,396.336823 361.967896,409.108429 
	C365.769592,422.535004 377.994141,432.244415 391.970032,432.937744 
	C406.136902,433.640564 417.964508,425.519989 423.992004,410.327637 
M410.419006,669.730713 
	C405.356262,669.484314 400.293518,669.237915 395.158844,668.988037 
	C395.158844,673.938843 395.158844,678.237244 395.158844,683.945618 
	C404.654846,684.176270 414.103668,685.192383 423.401001,684.409485 
	C432.616150,683.633484 436.987122,678.808350 438.355133,669.642395 
	C439.131714,664.439270 439.180054,658.972046 438.542023,653.747559 
	C437.421661,644.573669 433.892029,641.481323 424.741119,640.121155 
	C422.272583,639.754272 419.807587,639.140442 417.332062,639.091797 
	C412.627228,638.999207 411.579285,636.418091 411.634308,632.266418 
	C411.691833,627.926941 413.387024,625.710815 417.823059,625.740173 
	C423.612549,625.778503 429.402466,625.749573 435.499298,625.749573 
	C435.499298,621.634521 435.499298,617.066345 435.499298,612.298523 
	C426.313629,610.260315 417.297363,609.058350 408.135925,611.015320 
	C399.559692,612.847229 394.857483,617.424377 393.944946,626.139832 
	C393.346069,631.859924 393.659637,637.762756 394.303558,643.500916 
	C394.941620,649.186951 398.501038,652.743713 404.377502,653.651245 
	C408.158447,654.235291 411.908051,655.088989 415.706970,655.471863 
	C419.902283,655.894775 421.328613,658.013794 421.215851,662.094116 
	C421.037628,668.541321 420.132446,669.390564 410.419006,669.730713 
M760.022827,646.500000 
	C760.022827,658.919373 760.022827,671.338806 760.022827,683.789062 
	C766.474121,683.789062 772.247314,683.789062 778.556885,683.789062 
	C778.556885,672.455688 778.415955,661.329651 778.591003,650.208618 
	C778.833435,634.809265 780.975098,632.262939 795.692749,628.921143 
	C795.692749,622.716614 795.692749,616.490723 795.692749,609.108398 
	C791.568115,610.751099 787.580933,611.472839 784.790894,613.696594 
	C782.060120,615.873108 780.549377,619.580200 778.234802,623.013428 
	C777.913879,618.809631 777.630249,615.094971 777.348755,611.408142 
	C771.394714,611.408142 765.958191,611.408142 760.022827,611.408142 
	C760.022827,622.940613 760.022827,634.220276 760.022827,646.500000 
M520.525452,640.500061 
	C520.525452,630.884216 520.525452,621.268372 520.525452,611.504395 
	C514.058167,611.504395 508.188293,611.504395 502.272339,611.504395 
	C502.272339,635.757996 502.272339,659.658813 502.272339,683.686340 
	C508.395813,683.686340 514.267700,683.686340 520.525024,683.686340 
	C520.525024,669.416077 520.525024,655.458069 520.525452,640.500061 
M437.367035,481.849457 
	C435.230927,484.314423 433.094818,486.779388 430.914917,489.294861 
	C437.330322,493.272034 437.274994,493.223663 441.740112,488.117096 
	C450.403442,478.209259 459.140869,468.366211 467.837952,458.487823 
	C482.797455,441.496368 497.749573,424.498413 512.940796,407.234924 
	C511.214172,405.281372 509.652557,403.514557 507.908417,401.541199 
	C484.221832,428.501099 461.023376,454.905426 437.367035,481.849457 
M607.949280,736.429443 
	C606.158813,731.566406 602.498169,733.609436 599.239197,733.800354 
	C599.239197,747.294312 599.239197,760.508240 599.239197,773.649536 
	C601.830322,773.649536 604.060547,773.649536 606.734985,773.649536 
	C606.734985,767.089417 606.734985,760.877319 606.734985,754.665283 
	C609.707764,759.087524 612.121094,763.597717 613.648010,768.390320 
	C615.286804,773.533936 618.040466,775.365662 623.205017,773.432312 
	C623.205017,760.251526 623.205017,747.044800 623.205017,733.722778 
	C620.567810,733.722778 618.333923,733.722778 615.526733,733.722778 
	C615.526733,739.580017 615.526733,745.116821 615.526733,750.653625 
	C615.101135,750.756592 614.675476,750.859497 614.249878,750.962463 
	C612.239197,746.360474 610.228455,741.758545 607.949280,736.429443 
M675.422974,760.488281 
	C675.422974,764.900452 675.422974,769.312561 675.422974,773.737671 
	C678.446716,773.737671 680.705627,773.737671 683.479126,773.737671 
	C683.479126,767.426147 683.479126,761.376526 683.479126,755.326965 
	C683.874512,755.228760 684.269958,755.130615 684.665344,755.032410 
	C686.670166,759.630676 689.078125,764.102539 690.570923,768.861450 
	C692.198853,774.051025 695.156860,775.074341 699.721497,773.511169 
	C699.721497,760.119141 699.721497,746.933105 699.721497,733.780151 
	C697.076416,733.780151 694.853638,733.780151 692.224121,733.780151 
	C692.224121,739.889099 692.224121,745.613403 692.224121,751.337646 
	C689.377686,747.272034 687.515198,742.947510 685.638062,738.629395 
	C683.042847,732.659424 682.560059,732.441956 675.423645,734.294006 
	C675.423645,742.601746 675.423645,751.047241 675.422974,760.488281 
M566.425598,749.498047 
	C566.622620,755.154541 566.694397,760.819153 567.057068,766.464966 
	C567.336365,770.812866 569.666443,773.714783 574.186707,774.052917 
	C577.469910,774.298462 581.009644,774.707214 584.026062,773.752014 
	C586.310730,773.028564 589.529114,770.339539 589.617249,768.401672 
	C590.142029,756.872070 589.876648,745.306519 589.876648,733.790894 
	C587.654724,733.790894 585.264221,733.790894 582.425476,733.790894 
	C582.425476,736.010193 582.432007,737.812378 582.424377,739.614563 
	C582.391174,747.444458 582.317566,755.274414 582.333801,763.104187 
	C582.341614,766.858337 580.086426,767.992615 577.174500,766.838135 
	C575.961121,766.356995 574.968872,763.774719 574.932068,762.124451 
	C574.721985,752.697144 574.830017,743.262817 574.830017,733.750732 
	C571.718445,733.750732 569.331543,733.750732 566.426270,733.750732 
	C566.426270,738.915894 566.426270,743.709900 566.425598,749.498047 
M441.770874,733.389282 
	C440.479645,734.200989 438.079407,734.991577 438.063477,735.827576 
	C437.823517,748.418640 437.897125,761.015747 437.897125,773.659119 
	C440.888641,773.659119 443.273560,773.659119 446.002655,773.659119 
	C446.002655,769.034180 446.002655,764.747925 446.002655,759.310486 
	C454.269867,761.690125 450.753754,770.193420 454.625092,773.610962 
	C457.259308,773.610962 459.635406,773.610962 462.441528,773.610962 
	C461.115997,769.160278 459.859802,765.216797 458.802917,761.220581 
	C458.500214,760.076050 458.279907,758.426208 458.863373,757.608826 
	C462.833038,752.047607 462.194366,746.000305 461.067993,739.885925 
	C460.421051,736.374207 458.193176,734.215210 454.648285,733.897400 
	C450.682007,733.541870 446.683777,733.543213 441.770874,733.389282 
M559.129761,753.500671 
	C559.072449,750.169373 559.118530,746.832458 558.936890,743.507996 
	C558.530151,736.063416 555.504272,733.259705 547.848145,733.044006 
	C538.348083,732.776428 534.905579,735.125366 534.329102,743.051208 
	C533.895020,749.019409 533.983704,755.040466 534.115906,761.031921 
	C534.369324,772.517456 538.475891,775.894165 549.874390,774.287903 
	C556.082153,773.413147 558.347107,771.187439 558.862366,764.981079 
	C559.151184,761.501404 559.053223,757.989563 559.129761,753.500671 
M731.525513,769.083618 
	C731.525513,762.985657 731.525513,756.887695 731.525513,750.625244 
	C727.386047,750.625244 723.984924,750.625244 720.128357,750.625244 
	C720.243774,752.903137 719.773621,756.256897 720.530884,756.561829 
	C726.374146,758.914429 723.225342,763.306641 723.705200,766.884216 
	C717.820190,767.656921 716.417175,766.821655 716.142334,761.722290 
	C715.865356,756.583252 716.025879,751.415710 716.122192,746.263123 
	C716.197388,742.239441 718.387878,740.144226 722.414062,740.219666 
	C725.216248,740.272095 728.014099,740.555847 731.130371,740.756714 
	C731.130371,738.497314 731.130371,736.433411 731.130371,733.151978 
	C726.606567,733.151978 722.323364,732.935303 718.072083,733.211121 
	C713.550232,733.504395 709.448425,735.662170 709.134399,740.390503 
	C708.544556,749.270081 708.513916,758.245789 709.184875,767.110779 
	C709.364746,769.486389 712.607483,773.011841 714.993164,773.542847 
	C719.550049,774.557007 724.515686,773.980103 729.275696,773.605591 
	C730.114990,773.539490 730.778931,771.244080 731.525513,769.083618 
M407.550842,753.897888 
	C406.246063,760.446350 404.941254,766.994751 403.591248,773.770264 
	C406.758636,773.770264 409.022827,773.770264 411.393524,773.770264 
	C412.093262,771.075073 412.742279,768.575073 413.360565,766.193542 
	C421.267548,765.433167 421.267548,765.433167 424.068604,773.680054 
	C426.597778,773.680054 429.152496,773.680054 432.016083,773.680054 
	C429.185059,760.058044 426.433929,746.820557 423.639832,733.376282 
	C420.956543,733.376282 418.795563,733.546814 416.671844,733.337952 
	C413.119751,732.988770 411.238251,733.937439 410.789948,737.967773 
	C410.224274,743.053833 408.819366,748.046570 407.550842,753.897888 
M371.902344,757.129761 
	C371.175690,750.708618 366.082458,750.129211 361.297577,749.447266 
	C357.800842,748.948914 357.154724,746.595825 357.938660,744.118774 
	C358.435486,742.548950 360.328583,740.724731 361.910797,740.351624 
	C364.545135,739.730286 367.432617,740.182190 370.502991,740.182190 
	C370.502991,738.330750 370.502991,736.420166 370.502991,733.321289 
	C365.968384,733.321289 361.513519,732.899231 357.200928,733.499390 
	C355.043243,733.799622 351.698364,735.700562 351.399017,737.336548 
	C350.475311,742.384705 350.046844,747.759155 350.793976,752.804321 
	C351.414001,756.990967 356.113586,756.487549 359.446655,757.163025 
	C359.933868,757.261719 360.671692,757.267700 360.847412,757.573181 
	C361.954102,759.496765 363.642822,761.475647 363.691711,763.471619 
	C363.721100,764.671021 361.274719,766.699280 359.682220,767.004456 
	C356.694611,767.576965 353.519226,767.169373 350.484802,767.169373 
	C349.841919,773.571838 349.841919,773.571716 354.663483,774.096130 
	C369.477692,775.707092 372.337219,773.048889 371.902344,757.129761 
M520.642456,740.413574 
	C522.895020,740.413574 525.147583,740.413574 528.530273,740.413574 
	C527.550110,737.595032 527.454468,734.641235 526.064636,733.782959 
	C519.751648,729.884399 509.867676,734.450134 509.121460,741.795837 
	C508.388367,749.012695 508.253815,756.385681 508.819031,763.614868 
	C509.510376,772.457153 513.759216,775.422241 522.503418,774.486877 
	C528.194092,773.878174 528.691528,773.072937 526.950439,767.147217 
	C525.987366,767.147217 524.996582,767.140442 524.005859,767.148254 
	C517.423401,767.200317 516.902039,766.812256 516.715759,760.140259 
	C516.576782,755.165588 516.542725,750.162537 516.952087,745.212708 
	C517.084351,743.613098 518.772949,742.142212 520.642456,740.413574 
M479.415955,774.029053 
	C482.581451,774.491211 482.849945,772.619568 482.827637,770.123474 
	C482.741882,760.531921 482.792938,750.939209 482.792938,741.215881 
	C485.577148,741.041504 487.696472,740.908691 490.070312,740.760010 
	C490.070312,738.383850 490.070312,736.146973 490.070312,733.682617 
	C482.225677,733.682617 474.689026,733.682617 466.743469,733.682617 
	C466.865204,736.262390 466.969788,738.478394 467.075806,740.724609 
	C469.674469,740.938843 471.771393,741.111755 474.292480,741.319641 
	C474.292480,751.057556 474.426880,760.514160 474.220642,769.963318 
	C474.147125,773.332886 475.324463,774.527405 479.415955,774.029053 
M637.835327,773.738831 
	C640.250854,773.738831 642.666382,773.738831 645.681030,773.738831 
	C645.681030,762.691956 645.681030,751.999390 645.681030,741.169922 
	C648.377014,741.001953 650.473389,740.871338 652.667664,740.734619 
	C652.667664,738.201050 652.667664,735.994873 652.667664,733.679932 
	C644.923767,733.679932 637.522583,733.679932 629.801208,733.679932 
	C629.801208,736.185913 629.801208,738.398071 629.801208,740.700256 
	C632.365601,740.901062 634.604065,741.076294 637.269287,741.284912 
	C637.269287,752.126953 637.269287,762.572876 637.835327,773.738831 
M376.512573,739.186340 
	C378.885101,740.094360 381.257629,741.002380 384.296021,742.165283 
	C384.296021,752.325256 384.296021,763.044373 384.296021,773.683594 
	C387.265198,773.683594 389.675690,773.683594 392.703613,773.683594 
	C392.703613,762.671448 392.703613,751.970398 392.703613,741.215210 
	C395.415131,741.010254 397.511719,740.851807 399.644684,740.690613 
	C399.644684,738.167175 399.644684,735.961670 399.644684,733.704712 
	C391.875031,733.704712 384.472229,733.704712 376.759216,733.704712 
	C376.652130,735.453430 376.563110,736.906616 376.512573,739.186340 
M488.796753,460.658356 
	C487.037170,460.740997 485.277588,460.823608 483.472473,460.908386 
	C483.472473,467.895020 483.472473,474.319031 483.472473,481.028503 
	C490.296692,481.028503 496.861481,481.028503 503.482605,481.028503 
	C503.482605,474.172302 503.482605,467.635895 503.482605,460.659149 
	C498.659393,460.659149 494.194275,460.659149 488.796753,460.658356 
M503.848907,501.431915 
	C503.848907,497.339752 503.848907,493.247559 503.848907,489.028473 
	C496.669373,489.028473 490.118347,489.028473 483.538818,489.028473 
	C483.538818,495.805756 483.538818,502.207794 483.538818,508.653625 
	C490.406586,508.653625 496.943420,508.653625 503.848724,508.653625 
	C503.848724,506.330811 503.848724,504.364807 503.848907,501.431915 
M514.654907,488.854889 
	C513.426880,489.699341 511.187408,490.486328 511.135681,491.397614 
	C510.810028,497.129028 510.970856,502.888031 510.970856,508.692444 
	C517.985107,508.692444 524.373413,508.692444 530.818604,508.692444 
	C530.818604,502.005249 530.818604,495.629852 530.818604,488.854065 
	C525.529358,488.854065 520.575745,488.854065 514.654907,488.854889 
M510.987335,479.269043 
	C511.600983,479.882965 512.202820,481.015839 512.830139,481.030121 
	C518.771423,481.165588 524.717041,481.110779 530.876465,481.110779 
	C530.876465,474.167633 530.876465,467.771667 530.876465,461.147644 
	C524.200928,461.147644 517.812866,461.147644 510.963104,461.147644 
	C510.963104,467.056763 510.963104,472.682434 510.987335,479.269043 
M520.581360,578.989685 
	C514.490051,578.526306 508.398743,578.062927 502.112518,577.584717 
	C502.112518,584.034119 502.112518,589.465332 502.112518,595.119812 
	C508.314514,595.119812 514.350098,595.119812 520.697083,595.119812 
	C520.697083,589.825012 520.697083,584.867371 520.581360,578.989685 
M659.053467,769.325317 
	C659.144287,770.769470 659.235046,772.213562 659.324463,773.635986 
	C662.069397,773.635986 664.453064,773.635986 667.098755,773.635986 
	C667.098755,760.976868 667.103760,748.686340 667.087280,736.395813 
	C667.086182,735.593689 666.920044,734.791809 666.799927,733.713623 
	C664.256775,733.713623 661.867737,733.713623 659.053467,733.713623 
	C659.053467,745.473450 659.053467,756.915894 659.053467,769.325317 
M658.811829,371.941162 
	C650.342834,368.297821 641.873840,364.654510 631.897095,360.362518 
	C632.901855,364.887512 632.597534,370.076935 634.542725,371.136383 
	C642.770752,375.617920 651.668030,378.870819 661.599060,383.119873 
	C660.774597,378.713745 660.166443,375.463684 658.811829,371.941162 
M447.359650,409.974243 
	C447.439392,410.003143 447.519104,410.032043 447.598846,410.060944 
	C447.601990,409.904907 447.605133,409.748840 447.608276,409.592773 
	C447.522614,409.620026 447.436951,409.647247 447.359650,409.974243 
z"/>
<path fill="#038FC8" opacity="1.000000" stroke="none" 
	d="
M534.955933,384.104492 
	C563.486938,390.855316 591.609009,397.534271 619.077881,404.058105 
	C619.077881,414.980591 619.254944,425.458069 618.977661,435.923492 
	C618.886047,439.382538 619.886841,441.438690 622.892517,443.016296 
	C626.094360,444.696869 629.080933,446.787537 632.762451,449.072083 
	C632.762451,425.401215 632.762451,402.357635 632.762451,378.316681 
	C639.401062,380.886871 645.350220,383.161133 651.277344,385.491486 
	C660.827576,389.246338 660.821350,389.262024 660.821350,399.332092 
	C660.821350,404.299652 660.821411,409.267242 660.821411,414.464081 
	C668.770142,416.365051 676.367920,418.060547 683.883972,420.062347 
	C685.839172,420.583069 687.946594,421.685394 689.296875,423.152863 
	C714.906372,450.985168 740.446838,478.881470 765.851318,506.900757 
	C767.291931,508.489716 768.026733,511.238586 768.069031,513.466980 
	C768.156799,518.092163 767.558167,522.730408 767.213257,527.780884 
	C721.024109,527.105225 675.278015,526.436035 629.038086,525.759583 
	C629.038086,521.107544 629.256287,516.668579 628.937805,512.268555 
	C628.797363,510.327881 628.063965,507.984192 626.759155,506.638550 
	C588.131897,466.802490 549.399719,427.068298 510.676178,387.325653 
	C510.001282,386.632996 509.229156,386.035034 508.262970,385.181366 
	C479.384369,418.309570 450.611633,451.316345 421.476990,484.738251 
	C418.008087,482.614960 414.689270,480.583496 410.927795,478.281097 
	C419.306458,468.701599 427.388306,459.437103 435.496613,450.195770 
	C456.374420,426.400543 477.283630,402.632843 498.112091,378.794586 
	C499.806366,376.855469 501.165375,376.048920 503.967834,376.781219 
	C514.100586,379.429138 524.344849,381.650360 534.955933,384.104492 
z"/>
<path fill="#90C344" opacity="1.000000" stroke="none" 
	d="
M352.978088,362.896790 
	C349.111603,364.520142 345.602386,366.008209 342.142059,367.475555 
	C344.358887,379.753357 343.515656,381.823578 333.763062,387.947357 
	C361.047211,466.298431 420.220367,504.770081 498.492249,519.444275 
	C399.065063,517.301880 334.769196,463.670013 308.159729,363.839081 
	C354.501892,344.431519 400.912018,324.995544 448.103546,305.232300 
	C446.893921,315.339508 445.794220,324.528229 444.538544,335.020172 
	C460.687988,328.368958 475.904266,322.102081 492.153046,315.409943 
	C480.778168,343.125824 469.443665,369.814819 464.278870,398.734772 
	C463.604980,392.945190 462.592529,387.169647 462.351135,381.362091 
	C462.103149,375.394928 462.470123,369.388092 462.831329,363.414551 
	C463.077667,359.340698 460.078369,352.770813 456.545685,352.216766 
	C454.394348,351.879395 451.973419,353.729401 449.598114,354.257263 
	C444.059296,355.488251 442.403198,358.714478 442.929504,364.295593 
	C444.270660,378.518280 445.109192,392.788391 446.159882,407.190277 
	C437.687164,387.837738 432.313873,367.612000 430.045349,346.154297 
	C422.849792,346.755096 417.581696,344.053528 414.621460,337.136047 
	C394.073853,345.727570 373.704590,354.244537 352.978088,362.896790 
z"/>
<path fill="#058FC9" opacity="1.000000" stroke="none" 
	d="
M601.837708,651.831238 
	C601.870056,652.473633 601.877563,652.640015 601.885925,652.806335 
	C602.596741,667.040710 606.190918,669.936096 620.641602,667.632568 
	C620.641602,659.950928 620.641602,652.217651 620.641602,644.106567 
	C617.978333,643.976685 615.384216,643.850220 612.403442,643.704895 
	C612.403442,638.289001 612.403442,632.912537 612.403442,627.246094 
	C621.103882,627.246094 629.819946,627.246094 638.772217,627.246094 
	C638.772217,645.513062 638.772217,663.606201 638.772217,682.233704 
	C624.918457,684.971313 610.994019,687.129456 597.033508,682.748230 
	C589.150757,680.274536 585.559265,673.661865 584.267761,666.186340 
	C580.727112,645.692688 580.564148,625.063171 584.250000,604.587402 
	C586.487915,592.155334 593.734131,585.811157 606.783997,585.289551 
	C616.348694,584.907288 625.993591,586.197937 635.576904,587.037659 
	C636.777893,587.142883 638.678345,588.971619 638.783813,590.135193 
	C639.170959,594.403320 638.937256,598.727661 638.937256,603.381104 
	C632.652710,602.902771 626.760681,602.354858 620.856140,602.050232 
	C618.212280,601.913757 615.515442,602.066406 612.890991,602.433289 
	C605.890137,603.412048 603.395142,605.024536 602.907043,611.993103 
	C601.990784,625.075195 602.119202,638.230347 601.837708,651.831238 
z"/>
<path fill="#038FC8" opacity="1.000000" stroke="none" 
	d="
M646.525391,656.999878 
	C646.525574,630.539978 646.525574,604.580017 646.525574,578.310425 
	C652.775696,578.310425 658.649475,578.310425 665.006531,578.310425 
	C665.006531,591.969482 665.006531,605.492981 665.006531,619.016541 
	C669.284851,611.678711 675.786499,609.722168 683.385132,610.136841 
	C691.308594,610.569275 695.768250,614.375366 696.879822,622.218628 
	C697.624146,627.470398 697.863586,632.825806 697.909363,638.138428 
	C698.039734,653.253235 697.955078,668.369812 697.955078,683.741943 
	C691.766174,683.741943 685.999695,683.741943 679.449280,683.741943 
	C679.449280,682.025757 679.458923,680.280945 679.447815,678.536255 
	C679.353394,663.714050 679.283264,648.891602 679.138245,634.069885 
	C679.102417,630.415222 678.764343,626.983032 673.679077,626.872253 
	C668.000977,626.748596 665.884888,627.939209 665.477173,633.725891 
	C664.928101,641.518738 665.068054,649.363647 665.012146,657.186890 
	C664.949341,665.969910 664.997803,674.753784 664.997803,683.766357 
	C658.782837,683.766357 653.012573,683.766357 646.525146,683.766357 
	C646.525146,675.011169 646.525146,666.255554 646.525391,656.999878 
z"/>
<path fill="#038FC8" opacity="1.000000" stroke="none" 
	d="
M461.997681,588.031372 
	C461.997681,598.664429 461.997681,608.803284 461.997681,620.710327 
	C466.210266,611.996094 472.511322,609.721924 480.113068,610.110657 
	C488.285767,610.528564 492.918518,614.334229 493.886261,622.444824 
	C494.691956,629.197266 494.837708,636.050720 494.912262,642.863403 
	C495.059723,656.337097 494.955780,669.813538 494.955780,683.644836 
	C488.831665,683.644836 482.934814,683.644836 476.449219,683.644836 
	C476.449219,681.551575 476.462677,679.429382 476.447052,677.307434 
	C476.339203,662.651855 476.248413,647.996033 476.096039,633.340881 
	C476.060699,629.937683 475.360992,627.032410 470.947815,626.892517 
	C466.726044,626.758728 463.133545,627.288879 462.657715,632.481323 
	C462.354614,635.789001 462.048309,639.110840 462.031342,642.427734 
	C461.961639,656.065857 462.002197,669.704529 462.002197,683.671814 
	C455.849426,683.671814 449.952698,683.671814 443.787628,683.671814 
	C443.787628,648.564209 443.787628,613.490662 443.787628,578.208069 
	C449.792633,578.208069 455.565765,578.208069 461.997681,578.208069 
	C461.997681,581.337646 461.997681,584.437439 461.997681,588.031372 
z"/>
<path fill="#058FC9" opacity="1.000000" stroke="none" 
	d="
M730.754517,610.122253 
	C746.681458,611.765503 752.004700,616.411133 752.621399,631.545532 
	C753.324463,648.798523 752.783997,666.102295 752.783997,683.694275 
	C747.140015,683.694275 741.567688,683.694275 735.442749,683.694275 
	C735.228394,681.269348 735.006409,678.757935 734.654236,674.774414 
	C730.581299,682.830750 724.787598,685.391296 717.405518,685.080750 
	C709.709961,684.756958 704.357300,681.186096 703.347961,673.556335 
	C702.403503,666.417419 702.503967,658.981140 703.334167,651.813477 
	C704.090942,645.280273 709.009521,641.514954 715.903870,641.069031 
	C721.844604,640.684814 727.829895,640.989380 734.663818,640.989380 
	C734.367126,637.158142 734.741333,633.383545 733.572632,630.170227 
	C732.886353,628.283386 729.820618,626.237732 727.695007,626.085815 
	C720.598572,625.578613 713.443298,625.893677 705.962402,625.893677 
	C705.962402,621.557556 705.962402,617.009949 705.962402,611.531128 
	C714.102600,611.053040 722.195496,610.577698 730.754517,610.122253 
M722.342651,668.420471 
	C732.713379,670.595581 736.249817,666.125122 734.090759,653.081238 
	C731.047058,653.081238 727.859863,652.709900 724.825989,653.230835 
	C723.197998,653.510376 720.626160,655.268921 720.572388,656.454956 
	C720.399536,660.267700 721.200195,664.124573 722.342651,668.420471 
z"/>
<path fill="#058FC9" opacity="1.000000" stroke="none" 
	d="
M389.156128,662.000000 
	C389.156189,669.469116 389.156189,676.438293 389.156189,683.704712 
	C383.258240,683.704712 377.687988,683.704712 371.809174,683.704712 
	C371.509521,681.237793 371.215118,678.814087 370.784546,675.269348 
	C366.878326,682.373169 361.494904,685.340698 354.249420,685.101013 
	C345.830688,684.822510 340.432129,681.023682 339.333771,672.659363 
	C338.478577,666.146790 338.553345,659.365051 339.303802,652.827881 
	C340.143524,645.513367 345.050110,641.655518 352.622314,640.991821 
	C355.598389,640.730896 358.607635,640.830383 361.602142,640.803284 
	C364.555084,640.776611 367.508453,640.797485 370.726746,640.797485 
	C370.792664,639.783875 370.880554,638.990173 370.890442,638.195557 
	C371.023743,627.428345 369.364990,625.712585 358.653900,625.635864 
	C353.331268,625.597717 348.008148,625.629150 342.303772,625.629150 
	C342.303772,621.723572 342.303772,617.168518 342.303772,612.247253 
	C352.709656,610.253357 363.197662,609.039978 373.825409,611.026306 
	C381.850586,612.526306 387.153961,617.028931 387.862000,625.116638 
	C388.918976,637.189697 388.783997,649.367004 389.156128,662.000000 
M370.894592,654.738708 
	C367.252411,651.252930 362.766449,652.597107 359.185547,653.923889 
	C357.458008,654.563904 356.534332,658.771790 356.219208,661.477356 
	C355.810181,664.988770 356.199341,668.627441 361.186981,669.065796 
	C366.950104,669.572205 369.463257,667.991882 370.422150,662.590454 
	C370.825653,660.317505 370.764526,657.962097 370.894592,654.738708 
z"/>
<path fill="#0690C9" opacity="1.000000" stroke="none" 
	d="
M528.765747,621.946106 
	C531.626953,615.151550 536.629089,611.495544 543.420227,610.972534 
	C549.501892,610.504150 555.698059,610.440186 561.758362,611.048035 
	C569.395874,611.814148 574.472412,616.526794 575.417542,624.117126 
	C576.601013,633.622375 576.793823,643.250977 577.449219,653.365967 
	C566.089355,653.365967 555.665955,653.365967 544.562134,653.365967 
	C544.802551,657.471069 544.380432,661.268433 545.462219,664.573547 
	C546.101807,666.527954 549.009644,668.813599 551.088440,669.019226 
	C557.008057,669.604675 563.025635,669.198914 569.004639,669.185547 
	C570.813477,669.181458 572.622314,669.184875 574.770264,669.184875 
	C574.770264,673.651306 574.770264,678.054321 574.770264,683.064026 
	C562.615723,685.076477 550.330505,686.877014 538.103821,682.851257 
	C532.703857,681.073242 529.025757,676.955017 528.040527,671.344849 
	C525.169128,654.993164 524.778259,638.608887 528.765747,621.946106 
M553.986328,625.425842 
	C545.476318,625.288330 543.294556,628.925415 544.972595,640.587280 
	C549.791992,640.587280 554.621643,640.587280 559.826050,640.587280 
	C559.584473,637.405029 559.375793,634.625977 559.161743,631.847351 
	C558.934570,628.897461 558.353516,626.193604 553.986328,625.425842 
z"/>
<path fill="#048FC8" opacity="1.000000" stroke="none" 
	d="
M290.404144,612.429443 
	C290.952240,609.027588 291.289734,606.044739 291.941010,603.132141 
	C294.403076,592.121582 299.990845,586.455688 311.215057,585.381714 
	C318.247925,584.708740 325.443634,585.700989 332.564056,585.999451 
	C335.166229,586.108521 336.328644,587.382324 336.183868,590.172485 
	C335.970795,594.279480 336.128876,598.405701 336.128876,602.047791 
	C330.678619,602.047791 325.740234,601.873657 320.818848,602.088501 
	C313.392456,602.412781 310.290771,605.025452 310.117310,612.414612 
	C309.766327,627.367981 309.773010,642.340271 310.098083,657.294556 
	C310.260162,664.749512 313.139832,667.202576 320.654022,667.793823 
	C323.296143,668.001648 325.977020,667.865417 328.631531,667.723816 
	C331.093536,667.592407 333.544006,667.244202 336.540100,666.935791 
	C336.540100,671.798462 336.704071,676.268860 336.412445,680.709412 
	C336.348175,681.687988 334.802155,683.138123 333.711334,683.390930 
	C324.361908,685.557739 314.940674,686.076355 305.608185,683.334290 
	C295.377899,680.328247 291.688477,672.025024 291.202637,662.703369 
	C290.338593,646.125854 290.566498,629.491394 290.404144,612.429443 
z"/>
<path fill="#90C344" opacity="1.000000" stroke="none" 
	d="
M423.888611,410.710876 
	C417.964508,425.519989 406.136902,433.640564 391.970032,432.937744 
	C377.994141,432.244415 365.769592,422.535004 361.967896,409.108429 
	C358.351624,396.336823 363.411896,382.129272 374.391479,374.226959 
	C385.368347,366.326599 400.386536,366.183258 411.344208,373.874207 
	C423.311737,382.273987 428.036774,395.892456 423.888611,410.710876 
M373.285583,394.188629 
	C376.182678,403.052795 378.254425,404.701050 387.384216,403.564819 
	C391.195526,403.090515 392.931793,404.180908 393.915894,407.599792 
	C394.500458,409.630615 395.413269,411.566956 396.302399,413.866119 
	C392.339020,415.716156 388.665283,417.431030 384.822479,419.224792 
	C385.833801,421.170776 386.573914,422.594910 387.353760,424.095459 
	C389.552612,423.246887 391.373169,422.427368 393.266388,421.843323 
	C395.635620,421.112396 398.251526,418.105743 400.286285,422.349121 
	C401.461456,421.764191 403.715424,420.854950 403.651581,420.642456 
	C402.514191,416.858521 405.594513,416.709839 407.671692,415.686127 
	C411.111389,413.990936 414.117279,411.899384 413.573944,407.430725 
	C412.664795,399.953278 408.606079,396.246979 401.123779,397.121735 
	C395.640594,397.762817 392.639587,396.108093 391.609497,390.744019 
	C391.399567,389.651001 390.981079,388.597992 390.581512,387.269806 
	C394.083923,385.701904 397.387115,384.223145 401.052277,382.582367 
	C400.187561,380.772644 399.442657,379.213715 398.837524,377.947235 
	C393.955750,377.754456 390.236115,384.071838 385.392120,379.072693 
	C385.219360,378.894440 383.350739,379.794342 383.381256,380.068207 
	C383.901642,384.738159 379.520813,384.515411 377.357208,386.541748 
	C375.466766,388.312317 374.528076,391.099121 373.285583,394.188629 
z"/>
<path fill="#0790C9" opacity="1.000000" stroke="none" 
	d="
M410.904663,669.732422 
	C420.132446,669.390564 421.037628,668.541321 421.215851,662.094116 
	C421.328613,658.013794 419.902283,655.894775 415.706970,655.471863 
	C411.908051,655.088989 408.158447,654.235291 404.377502,653.651245 
	C398.501038,652.743713 394.941620,649.186951 394.303558,643.500916 
	C393.659637,637.762756 393.346069,631.859924 393.944946,626.139832 
	C394.857483,617.424377 399.559692,612.847229 408.135925,611.015320 
	C417.297363,609.058350 426.313629,610.260315 435.499298,612.298523 
	C435.499298,617.066345 435.499298,621.634521 435.499298,625.749573 
	C429.402466,625.749573 423.612549,625.778503 417.823059,625.740173 
	C413.387024,625.710815 411.691833,627.926941 411.634308,632.266418 
	C411.579285,636.418091 412.627228,638.999207 417.332062,639.091797 
	C419.807587,639.140442 422.272583,639.754272 424.741119,640.121155 
	C433.892029,641.481323 437.421661,644.573669 438.542023,653.747559 
	C439.180054,658.972046 439.131714,664.439270 438.355133,669.642395 
	C436.987122,678.808350 432.616150,683.633484 423.401001,684.409485 
	C414.103668,685.192383 404.654846,684.176270 395.158844,683.945618 
	C395.158844,678.237244 395.158844,673.938843 395.158844,668.988037 
	C400.293518,669.237915 405.356262,669.484314 410.904663,669.732422 
z"/>
<path fill="#058FC9" opacity="1.000000" stroke="none" 
	d="
M760.022827,646.000000 
	C760.022827,634.220276 760.022827,622.940613 760.022827,611.408142 
	C765.958191,611.408142 771.394714,611.408142 777.348755,611.408142 
	C777.630249,615.094971 777.913879,618.809631 778.234802,623.013428 
	C780.549377,619.580200 782.060120,615.873108 784.790894,613.696594 
	C787.580933,611.472839 791.568115,610.751099 795.692749,609.108398 
	C795.692749,616.490723 795.692749,622.716614 795.692749,628.921143 
	C780.975098,632.262939 778.833435,634.809265 778.591003,650.208618 
	C778.415955,661.329651 778.556885,672.455688 778.556885,683.789062 
	C772.247314,683.789062 766.474121,683.789062 760.022827,683.789062 
	C760.022827,671.338806 760.022827,658.919373 760.022827,646.000000 
z"/>
<path fill="#038FC8" opacity="1.000000" stroke="none" 
	d="
M520.525269,641.000122 
	C520.525024,655.458069 520.525024,669.416077 520.525024,683.686340 
	C514.267700,683.686340 508.395813,683.686340 502.272339,683.686340 
	C502.272339,659.658813 502.272339,635.757996 502.272339,611.504395 
	C508.188293,611.504395 514.058167,611.504395 520.525452,611.504395 
	C520.525452,621.268372 520.525452,630.884216 520.525269,641.000122 
z"/>
<path fill="#92C448" opacity="1.000000" stroke="none" 
	d="
M437.595947,481.579590 
	C461.023376,454.905426 484.221832,428.501099 507.908417,401.541199 
	C509.652557,403.514557 511.214172,405.281372 512.940796,407.234924 
	C497.749573,424.498413 482.797455,441.496368 467.837952,458.487823 
	C459.140869,468.366211 450.403442,478.209259 441.740112,488.117096 
	C437.274994,493.223663 437.330322,493.272034 430.914917,489.294861 
	C433.094818,486.779388 435.230927,484.314423 437.595947,481.579590 
z"/>
<path fill="#90C345" opacity="1.000000" stroke="none" 
	d="
M608.083496,736.792969 
	C610.228455,741.758545 612.239197,746.360474 614.249878,750.962463 
	C614.675476,750.859497 615.101135,750.756592 615.526733,750.653625 
	C615.526733,745.116821 615.526733,739.580017 615.526733,733.722778 
	C618.333923,733.722778 620.567810,733.722778 623.205017,733.722778 
	C623.205017,747.044800 623.205017,760.251526 623.205017,773.432312 
	C618.040466,775.365662 615.286804,773.533936 613.648010,768.390320 
	C612.121094,763.597717 609.707764,759.087524 606.734985,754.665283 
	C606.734985,760.877319 606.734985,767.089417 606.734985,773.649536 
	C604.060547,773.649536 601.830322,773.649536 599.239197,773.649536 
	C599.239197,760.508240 599.239197,747.294312 599.239197,733.800354 
	C602.498169,733.609436 606.158813,731.566406 608.083496,736.792969 
z"/>
<path fill="#90C345" opacity="1.000000" stroke="none" 
	d="
M675.423340,759.990540 
	C675.423645,751.047241 675.423645,742.601746 675.423645,734.294006 
	C682.560059,732.441956 683.042847,732.659424 685.638062,738.629395 
	C687.515198,742.947510 689.377686,747.272034 692.224121,751.337646 
	C692.224121,745.613403 692.224121,739.889099 692.224121,733.780151 
	C694.853638,733.780151 697.076416,733.780151 699.721497,733.780151 
	C699.721497,746.933105 699.721497,760.119141 699.721497,773.511169 
	C695.156860,775.074341 692.198853,774.051025 690.570923,768.861450 
	C689.078125,764.102539 686.670166,759.630676 684.665344,755.032410 
	C684.269958,755.130615 683.874512,755.228760 683.479126,755.326965 
	C683.479126,761.376526 683.479126,767.426147 683.479126,773.737671 
	C680.705627,773.737671 678.446716,773.737671 675.422974,773.737671 
	C675.422974,769.312561 675.422974,764.900452 675.423340,759.990540 
z"/>
<path fill="#92C448" opacity="1.000000" stroke="none" 
	d="
M566.425903,749.000977 
	C566.426270,743.709900 566.426270,738.915894 566.426270,733.750732 
	C569.331543,733.750732 571.718445,733.750732 574.830017,733.750732 
	C574.830017,743.262817 574.721985,752.697144 574.932068,762.124451 
	C574.968872,763.774719 575.961121,766.356995 577.174500,766.838135 
	C580.086426,767.992615 582.341614,766.858337 582.333801,763.104187 
	C582.317566,755.274414 582.391174,747.444458 582.424377,739.614563 
	C582.432007,737.812378 582.425476,736.010193 582.425476,733.790894 
	C585.264221,733.790894 587.654724,733.790894 589.876648,733.790894 
	C589.876648,745.306519 590.142029,756.872070 589.617249,768.401672 
	C589.529114,770.339539 586.310730,773.028564 584.026062,773.752014 
	C581.009644,774.707214 577.469910,774.298462 574.186707,774.052917 
	C569.666443,773.714783 567.336365,770.812866 567.057068,766.464966 
	C566.694397,760.819153 566.622620,755.154541 566.425903,749.000977 
z"/>
<path fill="#90C344" opacity="1.000000" stroke="none" 
	d="
M442.235168,733.389221 
	C446.683777,733.543213 450.682007,733.541870 454.648285,733.897400 
	C458.193176,734.215210 460.421051,736.374207 461.067993,739.885925 
	C462.194366,746.000305 462.833038,752.047607 458.863373,757.608826 
	C458.279907,758.426208 458.500214,760.076050 458.802917,761.220581 
	C459.859802,765.216797 461.115997,769.160278 462.441528,773.610962 
	C459.635406,773.610962 457.259308,773.610962 454.625092,773.610962 
	C450.753754,770.193420 454.269867,761.690125 446.002655,759.310486 
	C446.002655,764.747925 446.002655,769.034180 446.002655,773.659119 
	C443.273560,773.659119 440.888641,773.659119 437.897125,773.659119 
	C437.897125,761.015747 437.823517,748.418640 438.063477,735.827576 
	C438.079407,734.991577 440.479645,734.200989 442.235168,733.389221 
M453.096252,742.341003 
	C450.953766,741.672913 448.811249,741.004761 446.248657,740.205627 
	C446.248657,745.103638 446.248657,748.847351 446.248657,752.557434 
	C452.925812,753.249695 453.883606,752.402710 453.752899,746.108032 
	C453.732391,745.119934 453.517334,744.135864 453.096252,742.341003 
z"/>
<path fill="#91C346" opacity="1.000000" stroke="none" 
	d="
M559.129639,753.996460 
	C559.053223,757.989563 559.151184,761.501404 558.862366,764.981079 
	C558.347107,771.187439 556.082153,773.413147 549.874390,774.287903 
	C538.475891,775.894165 534.369324,772.517456 534.115906,761.031921 
	C533.983704,755.040466 533.895020,749.019409 534.329102,743.051208 
	C534.905579,735.125366 538.348083,732.776428 547.848145,733.044006 
	C555.504272,733.259705 558.530151,736.063416 558.936890,743.507996 
	C559.118530,746.832458 559.072449,750.169373 559.129639,753.996460 
M542.143738,745.989319 
	C542.179993,751.642273 542.135498,757.297363 542.285889,762.947266 
	C542.363281,765.857361 543.760315,767.421814 547.031555,767.263062 
	C550.216919,767.108459 550.948792,765.298035 550.962952,762.691223 
	C550.993530,757.036987 551.004761,751.382568 550.994507,745.728210 
	C550.989380,742.906372 550.683289,740.323547 546.938232,740.098267 
	C543.278625,739.878113 542.451599,742.183411 542.143738,745.989319 
z"/>
<path fill="#91C447" opacity="1.000000" stroke="none" 
	d="
M731.524658,769.530884 
	C730.778931,771.244080 730.114990,773.539490 729.275696,773.605591 
	C724.515686,773.980103 719.550049,774.557007 714.993164,773.542847 
	C712.607483,773.011841 709.364746,769.486389 709.184875,767.110779 
	C708.513916,758.245789 708.544556,749.270081 709.134399,740.390503 
	C709.448425,735.662170 713.550232,733.504395 718.072083,733.211121 
	C722.323364,732.935303 726.606567,733.151978 731.130371,733.151978 
	C731.130371,736.433411 731.130371,738.497314 731.130371,740.756714 
	C728.014099,740.555847 725.216248,740.272095 722.414062,740.219666 
	C718.387878,740.144226 716.197388,742.239441 716.122192,746.263123 
	C716.025879,751.415710 715.865356,756.583252 716.142334,761.722290 
	C716.417175,766.821655 717.820190,767.656921 723.705200,766.884216 
	C723.225342,763.306641 726.374146,758.914429 720.530884,756.561829 
	C719.773621,756.256897 720.243774,752.903137 720.128357,750.625244 
	C723.984924,750.625244 727.386047,750.625244 731.525513,750.625244 
	C731.525513,756.887695 731.525513,762.985657 731.524658,769.530884 
z"/>
<path fill="#91C447" opacity="1.000000" stroke="none" 
	d="
M407.663696,753.488708 
	C408.819366,748.046570 410.224274,743.053833 410.789948,737.967773 
	C411.238251,733.937439 413.119751,732.988770 416.671844,733.337952 
	C418.795563,733.546814 420.956543,733.376282 423.639832,733.376282 
	C426.433929,746.820557 429.185059,760.058044 432.016083,773.680054 
	C429.152496,773.680054 426.597778,773.680054 424.068604,773.680054 
	C421.267548,765.433167 421.267548,765.433167 413.360565,766.193542 
	C412.742279,768.575073 412.093262,771.075073 411.393524,773.770264 
	C409.022827,773.770264 406.758636,773.770264 403.591248,773.770264 
	C404.941254,766.994751 406.246063,760.446350 407.663696,753.488708 
M416.030060,758.849915 
	C417.575531,758.849915 419.121033,758.849915 421.085968,758.849915 
	C419.923004,752.631226 418.930145,747.322021 417.937286,742.012878 
	C417.546021,742.015930 417.154755,742.018982 416.763519,742.022034 
	C416.263672,747.588745 415.763794,753.155457 416.030060,758.849915 
z"/>
<path fill="#91C447" opacity="1.000000" stroke="none" 
	d="
M371.939972,757.565063 
	C372.337219,773.048889 369.477692,775.707092 354.663483,774.096130 
	C349.841919,773.571716 349.841919,773.571838 350.484802,767.169373 
	C353.519226,767.169373 356.694611,767.576965 359.682220,767.004456 
	C361.274719,766.699280 363.721100,764.671021 363.691711,763.471619 
	C363.642822,761.475647 361.954102,759.496765 360.847412,757.573181 
	C360.671692,757.267700 359.933868,757.261719 359.446655,757.163025 
	C356.113586,756.487549 351.414001,756.990967 350.793976,752.804321 
	C350.046844,747.759155 350.475311,742.384705 351.399017,737.336548 
	C351.698364,735.700562 355.043243,733.799622 357.200928,733.499390 
	C361.513519,732.899231 365.968384,733.321289 370.502991,733.321289 
	C370.502991,736.420166 370.502991,738.330750 370.502991,740.182190 
	C367.432617,740.182190 364.545135,739.730286 361.910797,740.351624 
	C360.328583,740.724731 358.435486,742.548950 357.938660,744.118774 
	C357.154724,746.595825 357.800842,748.948914 361.297577,749.447266 
	C366.082458,750.129211 371.175690,750.708618 371.939972,757.565063 
z"/>
<path fill="#93C54A" opacity="1.000000" stroke="none" 
	d="
M520.196045,740.513062 
	C518.772949,742.142212 517.084351,743.613098 516.952087,745.212708 
	C516.542725,750.162537 516.576782,755.165588 516.715759,760.140259 
	C516.902039,766.812256 517.423401,767.200317 524.005859,767.148254 
	C524.996582,767.140442 525.987366,767.147217 526.950439,767.147217 
	C528.691528,773.072937 528.194092,773.878174 522.503418,774.486877 
	C513.759216,775.422241 509.510376,772.457153 508.819031,763.614868 
	C508.253815,756.385681 508.388367,749.012695 509.121460,741.795837 
	C509.867676,734.450134 519.751648,729.884399 526.064636,733.782959 
	C527.454468,734.641235 527.550110,737.595032 528.530273,740.413574 
	C525.147583,740.413574 522.895020,740.413574 520.196045,740.513062 
z"/>
<path fill="#95C64E" opacity="1.000000" stroke="none" 
	d="
M478.965637,774.029419 
	C475.324463,774.527405 474.147125,773.332886 474.220642,769.963318 
	C474.426880,760.514160 474.292480,751.057556 474.292480,741.319641 
	C471.771393,741.111755 469.674469,740.938843 467.075806,740.724609 
	C466.969788,738.478394 466.865204,736.262390 466.743469,733.682617 
	C474.689026,733.682617 482.225677,733.682617 490.070312,733.682617 
	C490.070312,736.146973 490.070312,738.383850 490.070312,740.760010 
	C487.696472,740.908691 485.577148,741.041504 482.792938,741.215881 
	C482.792938,750.939209 482.741882,760.531921 482.827637,770.123474 
	C482.849945,772.619568 482.581451,774.491211 478.965637,774.029419 
z"/>
<path fill="#90C345" opacity="1.000000" stroke="none" 
	d="
M637.552307,773.378845 
	C637.269287,762.572876 637.269287,752.126953 637.269287,741.284912 
	C634.604065,741.076294 632.365601,740.901062 629.801208,740.700256 
	C629.801208,738.398071 629.801208,736.185913 629.801208,733.679932 
	C637.522583,733.679932 644.923767,733.679932 652.667664,733.679932 
	C652.667664,735.994873 652.667664,738.201050 652.667664,740.734619 
	C650.473389,740.871338 648.377014,741.001953 645.681030,741.169922 
	C645.681030,751.999390 645.681030,762.691956 645.681030,773.738831 
	C642.666382,773.738831 640.250854,773.738831 637.552307,773.378845 
z"/>
<path fill="#90C345" opacity="1.000000" stroke="none" 
	d="
M376.493347,738.773071 
	C376.563110,736.906616 376.652130,735.453430 376.759216,733.704712 
	C384.472229,733.704712 391.875031,733.704712 399.644684,733.704712 
	C399.644684,735.961670 399.644684,738.167175 399.644684,740.690613 
	C397.511719,740.851807 395.415131,741.010254 392.703613,741.215210 
	C392.703613,751.970398 392.703613,762.671448 392.703613,773.683594 
	C389.675690,773.683594 387.265198,773.683594 384.296021,773.683594 
	C384.296021,763.044373 384.296021,752.325256 384.296021,742.165283 
	C381.257629,741.002380 378.885101,740.094360 376.493347,738.773071 
z"/>
<path fill="#91C447" opacity="1.000000" stroke="none" 
	d="
M489.262939,460.658752 
	C494.194275,460.659149 498.659393,460.659149 503.482605,460.659149 
	C503.482605,467.635895 503.482605,474.172302 503.482605,481.028503 
	C496.861481,481.028503 490.296692,481.028503 483.472473,481.028503 
	C483.472473,474.319031 483.472473,467.895020 483.472473,460.908386 
	C485.277588,460.823608 487.037170,460.740997 489.262939,460.658752 
z"/>
<path fill="#91C447" opacity="1.000000" stroke="none" 
	d="
M503.848816,501.915344 
	C503.848724,504.364807 503.848724,506.330811 503.848724,508.653625 
	C496.943420,508.653625 490.406586,508.653625 483.538818,508.653625 
	C483.538818,502.207794 483.538818,495.805756 483.538818,489.028473 
	C490.118347,489.028473 496.669373,489.028473 503.848907,489.028473 
	C503.848907,493.247559 503.848907,497.339752 503.848816,501.915344 
z"/>
<path fill="#8EC241" opacity="1.000000" stroke="none" 
	d="
M515.138489,488.854492 
	C520.575745,488.854065 525.529358,488.854065 530.818604,488.854065 
	C530.818604,495.629852 530.818604,502.005249 530.818604,508.692444 
	C524.373413,508.692444 517.985107,508.692444 510.970856,508.692444 
	C510.970856,502.888031 510.810028,497.129028 511.135681,491.397614 
	C511.187408,490.486328 513.426880,489.699341 515.138489,488.854492 
z"/>
<path fill="#8EC241" opacity="1.000000" stroke="none" 
	d="
M510.975220,478.788574 
	C510.963104,472.682434 510.963104,467.056763 510.963104,461.147644 
	C517.812866,461.147644 524.200928,461.147644 530.876465,461.147644 
	C530.876465,467.771667 530.876465,474.167633 530.876465,481.110779 
	C524.717041,481.110779 518.771423,481.165588 512.830139,481.030121 
	C512.202820,481.015839 511.600983,479.882965 510.975220,478.788574 
z"/>
<path fill="#0790C9" opacity="1.000000" stroke="none" 
	d="
M520.639221,579.449707 
	C520.697083,584.867371 520.697083,589.825012 520.697083,595.119812 
	C514.350098,595.119812 508.314514,595.119812 502.112518,595.119812 
	C502.112518,589.465332 502.112518,584.034119 502.112518,577.584717 
	C508.398743,578.062927 514.490051,578.526306 520.639221,579.449707 
z"/>
<path fill="#90C344" opacity="1.000000" stroke="none" 
	d="
M659.053467,768.841858 
	C659.053467,756.915894 659.053467,745.473450 659.053467,733.713623 
	C661.867737,733.713623 664.256775,733.713623 666.799927,733.713623 
	C666.920044,734.791809 667.086182,735.593689 667.087280,736.395813 
	C667.103760,748.686340 667.098755,760.976868 667.098755,773.635986 
	C664.453064,773.635986 662.069397,773.635986 659.324463,773.635986 
	C659.235046,772.213562 659.144287,770.769470 659.053467,768.841858 
z"/>
<path fill="#0A92CA" opacity="1.000000" stroke="none" 
	d="
M659.185059,372.077393 
	C660.166443,375.463684 660.774597,378.713745 661.599060,383.119873 
	C651.668030,378.870819 642.770752,375.617920 634.542725,371.136383 
	C632.597534,370.076935 632.901855,364.887512 631.897095,360.362518 
	C641.873840,364.654510 650.342834,368.297821 659.185059,372.077393 
z"/>
<path fill="#90C344" opacity="1.000000" stroke="none" 
	d="
M447.355469,409.824341 
	C447.436951,409.647247 447.522614,409.620026 447.608276,409.592773 
	C447.605133,409.748840 447.601990,409.904907 447.598846,410.060944 
	C447.519104,410.032043 447.439392,410.003143 447.355469,409.824341 
z"/>
<path fill="#F7FBFD" opacity="1.000000" stroke="none" 
	d="
M721.984009,668.192444 
	C721.200195,664.124573 720.399536,660.267700 720.572388,656.454956 
	C720.626160,655.268921 723.197998,653.510376 724.825989,653.230835 
	C727.859863,652.709900 731.047058,653.081238 734.090759,653.081238 
	C736.249817,666.125122 732.713379,670.595581 721.984009,668.192444 
z"/>
<path fill="#F7FBFD" opacity="1.000000" stroke="none" 
	d="
M370.904602,655.191406 
	C370.764526,657.962097 370.825653,660.317505 370.422150,662.590454 
	C369.463257,667.991882 366.950104,669.572205 361.186981,669.065796 
	C356.199341,668.627441 355.810181,664.988770 356.219208,661.477356 
	C356.534332,658.771790 357.458008,654.563904 359.185547,653.923889 
	C362.766449,652.597107 367.252411,651.252930 370.904602,655.191406 
z"/>
<path fill="#F7FBFD" opacity="1.000000" stroke="none" 
	d="
M554.377197,625.516235 
	C558.353516,626.193604 558.934570,628.897461 559.161743,631.847351 
	C559.375793,634.625977 559.584473,637.405029 559.826050,640.587280 
	C554.621643,640.587280 549.791992,640.587280 544.972595,640.587280 
	C543.294556,628.925415 545.476318,625.288330 554.377197,625.516235 
z"/>
<path fill="#FAFCF7" opacity="1.000000" stroke="none" 
	d="
M373.227234,393.812805 
	C374.528076,391.099121 375.466766,388.312317 377.357208,386.541748 
	C379.520813,384.515411 383.901642,384.738159 383.381256,380.068207 
	C383.350739,379.794342 385.219360,378.894440 385.392120,379.072693 
	C390.236115,384.071838 393.955750,377.754456 398.837524,377.947235 
	C399.442657,379.213715 400.187561,380.772644 401.052277,382.582367 
	C397.387115,384.223145 394.083923,385.701904 390.581512,387.269806 
	C390.981079,388.597992 391.399567,389.651001 391.609497,390.744019 
	C392.639587,396.108093 395.640594,397.762817 401.123779,397.121735 
	C408.606079,396.246979 412.664795,399.953278 413.573944,407.430725 
	C414.117279,411.899384 411.111389,413.990936 407.671692,415.686127 
	C405.594513,416.709839 402.514191,416.858521 403.651581,420.642456 
	C403.715424,420.854950 401.461456,421.764191 400.286285,422.349121 
	C398.251526,418.105743 395.635620,421.112396 393.266388,421.843323 
	C391.373169,422.427368 389.552612,423.246887 387.353760,424.095459 
	C386.573914,422.594910 385.833801,421.170776 384.822479,419.224792 
	C388.665283,417.431030 392.339020,415.716156 396.302399,413.866119 
	C395.413269,411.566956 394.500458,409.630615 393.915894,407.599792 
	C392.931793,404.180908 391.195526,403.090515 387.384216,403.564819 
	C378.254425,404.701050 376.182678,403.052795 373.227234,393.812805 
M405.197479,406.184662 
	C403.562164,402.295013 400.725769,401.938995 396.891815,403.180908 
	C397.583405,404.919098 398.093719,406.292297 398.673920,407.635376 
	C399.301849,409.089050 399.994873,410.514587 401.415009,413.586548 
	C403.221954,410.566162 404.329590,408.714722 405.197479,406.184662 
M387.062653,391.330017 
	C386.034088,388.679321 383.981262,389.222443 382.925568,390.725891 
	C382.010895,392.028473 381.449890,395.094727 382.175934,395.728851 
	C383.855103,397.195465 386.408966,397.660645 388.608093,398.531952 
	C388.844147,398.047546 389.080170,397.563110 389.316223,397.078705 
	C388.670410,395.412476 388.024597,393.746277 387.062653,391.330017 
z"/>
<path fill="#FAFCF7" opacity="1.000000" stroke="none" 
	d="
M453.244232,742.745483 
	C453.517334,744.135864 453.732391,745.119934 453.752899,746.108032 
	C453.883606,752.402710 452.925812,753.249695 446.248657,752.557434 
	C446.248657,748.847351 446.248657,745.103638 446.248657,740.205627 
	C448.811249,741.004761 450.953766,741.672913 453.244232,742.745483 
z"/>
<path fill="#FAFCF7" opacity="1.000000" stroke="none" 
	d="
M542.165466,745.545410 
	C542.451599,742.183411 543.278625,739.878113 546.938232,740.098267 
	C550.683289,740.323547 550.989380,742.906372 550.994507,745.728210 
	C551.004761,751.382568 550.993530,757.036987 550.962952,762.691223 
	C550.948792,765.298035 550.216919,767.108459 547.031555,767.263062 
	C543.760315,767.421814 542.363281,765.857361 542.285889,762.947266 
	C542.135498,757.297363 542.179993,751.642273 542.165466,745.545410 
z"/>
<path fill="#F2F8E9" opacity="1.000000" stroke="none" 
	d="
M415.647003,758.786011 
	C415.763794,753.155457 416.263672,747.588745 416.763519,742.022034 
	C417.154755,742.018982 417.546021,742.015930 417.937286,742.012878 
	C418.930145,747.322021 419.923004,752.631226 421.085968,758.849915 
	C419.121033,758.849915 417.575531,758.849915 415.647003,758.786011 
z"/>
<path fill="#93C54A" opacity="1.000000" stroke="none" 
	d="
M405.317383,406.523956 
	C404.329590,408.714722 403.221954,410.566162 401.415009,413.586548 
	C399.994873,410.514587 399.301849,409.089050 398.673920,407.635376 
	C398.093719,406.292297 397.583405,404.919098 396.891815,403.180908 
	C400.725769,401.938995 403.562164,402.295013 405.317383,406.523956 
z"/>
<path fill="#95C64E" opacity="1.000000" stroke="none" 
	d="
M387.220703,391.705017 
	C388.024597,393.746277 388.670410,395.412476 389.316223,397.078705 
	C389.080170,397.563110 388.844147,398.047546 388.608093,398.531952 
	C386.408966,397.660645 383.855103,397.195465 382.175934,395.728851 
	C381.449890,395.094727 382.010895,392.028473 382.925568,390.725891 
	C383.981262,389.222443 386.034088,388.679321 387.220703,391.705017 
z"/>
</svg>